:version 1.10
:name ASF
:units
  mass 1
  length 1
  angle deg
:documentation
  ASF file generated by Kaydara
:root
  axis xyz
  order  tx ty tz rx ry rz
  position 0 0 0
  orientation 0 0 0
:bonedata
  begin
    id 1
    name RightUpLegDummy
    direction -0.718183 -0.695806 0.00816078
    length 4.904
    axis 0 0 0 xyz
  end
  begin
    id 2
    name RightUpLeg
    direction 3.53373e-006 -0.995788 0.0916898
    length 17.4976
    axis -3.49089 -0.000906625 0.000286804 xyz
    dof rx ry rz
  end
  begin
    id 3
    name RightLeg
    direction 0.00371092 -0.995096 -0.0988419
    length 16.5821
    axis 3.68512 0.0193738 -0.131023 xyz
    dof rx ry rz
  end
  begin
    id 4
    name RightFoot
    direction 0.00079151 -0.46099 0.887405
    length 3.77069
    axis 4.81691e-005 -0.120479 -0.188788 xyz
    dof rx ry rz
  end
  begin
    id 5
    name RightToes
    direction 0 0 0
    length 0
    axis 0 0 0 xyz
    dof rx ry rz
  end
  begin
    id 6
    name SpineDummy
    direction 8.3039e-015 1 4.57515e-016
    length 4.6813
    axis 0 0 0 xyz
  end
  begin
    id 7
    name Spine
    direction -3.15643e-008 0.999988 0.00495137
    length 10.1015
    axis -0.001389 0.000121418 2.40972e-006 xyz
    dof rx ry rz
  end
  begin
    id 8
    name Spine1
    direction 0 0 0
    length 0
    axis -0.001389 0.000121451 1.30017e-006 xyz
    dof rx ry rz
  end
  begin
    id 9
    name HEadDummy
    direction -1.99912e-008 0.999999 0.00127422
    length 3.43865
    axis -0.001389 0.000121451 1.30017e-006 xyz
  end
  begin
    id 10
    name HEad
    direction 0 0 0
    length 0
    axis 0 0 0 xyz
    dof rx ry rz
  end
  begin
    id 11
    name LeftShoulder1Dummy
    direction 0.998891 -0.0402509 -0.0244456
    length 3.5433
    axis -0.001389 0.000121451 1.30017e-006 xyz
  end
  begin
    id 12
    name LeftShoulder1
    direction 0.99951 -0.000327763 0.0313091
    length 4.05031
    axis -0.001389 0.000121451 1.30017e-006 xyz
    dof rx ry rz
  end
  begin
    id 13
    name LeftArm
    direction 0.998561 -0.00100056 -0.0536182
    length 10.3537
    axis -23.1894 0.134784 0.967509 xyz
    dof rx ry rz
  end
  begin
    id 14
    name LeftForeArm
    direction 0.998903 0.00866432 0.046012
    length 8.70632
    axis -9.91835 -0.06569 -0.177794 xyz
    dof rx ry rz
  end
  begin
    id 15
    name LeftHand
    direction 0 0 0
    length 0
    axis 0 0 0 xyz
    dof rx ry rz
  end
  begin
    id 16
    name RightShoulderDummy
    direction -0.998891 -0.0402509 -0.0244414
    length 3.5433
    axis -0.001389 0.000121451 1.30017e-006 xyz
  end
  begin
    id 17
    name RightShoulder
    direction -0.99951 -0.000327807 0.0313133
    length 4.05031
    axis 0.215806 0.000203643 -0.0068026 xyz
    dof rx ry rz
  end
  begin
    id 18
    name RightArm
    direction -0.998573 -0.000999564 -0.053403
    length 10.3947
    axis -23.2009 -0.134239 -0.964101 xyz
    dof rx ry rz
  end
  begin
    id 19
    name RightForeArm
    direction -0.998898 0.00868028 0.0461306
    length 8.68355
    axis -9.92322 0.0658061 0.178868 xyz
    dof rx ry rz
  end
  begin
    id 20
    name RightHand
    direction 0 0 0
    length 0
    axis 0 0 0 xyz
    dof rx ry rz
  end
  begin
    id 21
    name LeftUpLegDummy
    direction 0.718183 -0.695806 0.00816078
    length 4.904
    axis 0 0 0 xyz
  end
  begin
    id 22
    name LeftUpLeg
    direction -6.81752e-006 -0.995793 0.0916337
    length 17.4976
    axis -3.48766 0.00143442 -0.000524262 xyz
    dof rx ry rz
  end
  begin
    id 23
    name LeftLeg
    direction -0.00601358 -0.995091 -0.0987824
    length 16.5821
    axis 3.68178 -0.00654042 -0.000285133 xyz
    dof rx ry rz
  end
  begin
    id 24
    name LeftFoot
    direction -0.00417578 -0.460984 0.887399
    length 3.77069
    axis 1.87233e-006 4.66016e-005 -8.6538e-006 xyz
    dof rx ry rz
  end
  begin
    id 25
    name LeftToes
    direction 0 0 0
    length 0
    axis 0 0 0 xyz
    dof rx ry rz
  end
:hierarchy
  begin
    root RightUpLegDummy SpineDummy LeftUpLegDummy
    RightUpLegDummy RightUpLeg
    RightUpLeg RightLeg
    RightLeg RightFoot
    RightFoot RightToes
    SpineDummy Spine
    Spine Spine1
    Spine1 HEadDummy LeftShoulder1Dummy RightShoulderDummy
    HEadDummy HEad
    LeftShoulder1Dummy LeftShoulder1
    LeftShoulder1 LeftArm
    LeftArm LeftForeArm
    LeftForeArm LeftHand
    RightShoulderDummy RightShoulder
    RightShoulder RightArm
    RightArm RightForeArm
    RightForeArm RightHand
    LeftUpLegDummy LeftUpLeg
    LeftUpLeg LeftLeg
    LeftLeg LeftFoot
    LeftFoot LeftToes
  end

:SAMPLES-PER-SECOND 30
:FULLY-SPECIFIED
:DEGREES
1
root  34.6707 40.2842 10.0853 35.1697 87.3631 41.192
RightUpLeg  -0.199103 -13.3339 -11.7585
RightLeg  11.1168 -3.84594 1.078
RightFoot  -1.50478 -0.295923 3.40424
RightToes  0.000481921 0.542163 -0.142578
Spine  -0.00518679 -0.177267 0.155916
Spine1  17.3649 -0.206819 0.0259125
HEad  19.3173 2.21136 -0.725917
LeftShoulder1  8.19783 -14.2657 -39.8915
LeftArm  -6.70583 -5.98106 -38.2914
LeftForeArm  -169.557 -50.6132 -169.14
LeftHand  -0.25398 0.0180481 5.50724
RightShoulder  5.31575 10.1503 32.9888
RightArm  0.859196 5.06674 49.134
RightForeArm  166.807 54.7448 165.569
RightHand  0.043002 -5.71608 -24.4122
LeftUpLeg  4.01802 8.26511 7.73023
LeftLeg  5.95691 14.7613 -2.70184
LeftFoot  -0.374836 0.462501 -4.76819
LeftToes  1.06244e-005 4.65869e-005 -8.65518e-006
2
root  34.6684 40.2842 10.0853 35.2432 87.3504 41.2664
RightUpLeg  -0.20443 -13.3017 -11.7596
RightLeg  11.1165 -3.87453 1.06261
RightFoot  -1.49512 -0.295439 3.39672
RightToes  0.000481921 0.542163 -0.142578
Spine  -0.0149273 -0.177384 0.162481
Spine1  17.4009 -0.201619 -0.00836285
HEad  19.3729 2.28255 -0.662827
LeftShoulder1  8.18978 -14.2583 -39.8668
LeftArm  -6.68657 -5.97632 -38.3299
LeftForeArm  -169.589 -50.6132 -169.14
LeftHand  -0.25398 0.0180481 5.50724
RightShoulder  5.32687 10.1508 33.0686
RightArm  0.274507 5.50742 48.9244
RightForeArm  168.673 54.596 165.789
RightHand  -0.277475 -3.72217 -21.4172
LeftUpLeg  4.02747 8.24411 7.71308
LeftLeg  5.93146 14.7908 -2.7058
LeftFoot  -0.358103 0.462501 -4.76819
LeftToes  1.06244e-005 4.65869e-005 -8.65518e-006
3
root  34.6647 40.2842 10.0853 35.3039 87.3384 41.3263
RightUpLeg  -0.212495 -13.3136 -11.7716
RightLeg  11.1193 -3.86354 1.06792
RightFoot  -1.48634 -0.293752 3.37055
RightToes  0.000481921 0.542163 -0.142578
Spine  -0.0798655 -0.174569 0.193518
Spine1  17.5254 -0.172415 -0.0840689
HEad  19.4261 2.351 -0.571087
LeftShoulder1  8.18115 -14.2626 -39.8102
LeftArm  -6.64404 -6.0021 -38.398
LeftForeArm  -169.613 -50.6137 -169.139
LeftHand  -0.25398 0.0180481 5.50724
RightShoulder  5.33618 10.1283 33.2006
RightArm  -1.93793 6.27001 48.2344
RightForeArm  173.656 54.0612 166.441
RightHand  -0.641151 1.1212 -11.1385
LeftUpLeg  4.03341 8.22169 7.69552
LeftLeg  5.90381 14.8246 -2.71035
LeftFoot  -0.343513 0.462491 -4.76804
LeftToes  1.06244e-005 4.65869e-005 -8.65518e-006
4
root  34.6614 40.2842 10.0858 35.4216 87.3448 41.4414
RightUpLeg  -0.223258 -13.3797 -11.7851
RightLeg  11.1342 -3.80901 1.09345
RightFoot  -1.48038 -0.291163 3.33037
RightToes  0.000481921 0.542163 -0.142578
Spine  -0.171939 -0.163615 0.22303
Spine1  17.6803 -0.136675 -0.154162
HEad  19.4385 2.36137 -0.500166
LeftShoulder1  8.17603 -14.2836 -39.7313
LeftArm  -6.61731 -6.04403 -38.4648
LeftForeArm  -169.612 -50.6196 -169.137
LeftHand  -0.25398 0.0180481 5.50724
RightShoulder  5.34593 10.1055 33.3375
RightArm  -1.81874 6.44594 48.2921
RightForeArm  176.232 54.1467 166.598
RightHand  -0.71264 2.63406 -10.5112
LeftUpLeg  4.0247 8.21458 7.69047
LeftLeg  5.8977 14.8229 -2.71012
LeftFoot  -0.341886 0.462635 -4.77029
LeftToes  1.06244e-005 4.65869e-005 -8.65518e-006
5
root  34.6587 40.2842 10.0881 35.7059 87.3634 41.7285
RightUpLeg  -0.227499 -13.4283 -11.791
RightLeg  11.1573 -3.77926 1.10665
RightFoot  -1.47923 -0.289504 3.30463
RightToes  0.000481921 0.542163 -0.142578
Spine  -0.219225 -0.159269 0.219787
Spine1  17.778 -0.122149 -0.182468
HEad  19.447 2.37622 -0.473654
LeftShoulder1  8.16882 -14.2957 -39.663
LeftArm  -6.60879 -6.07408 -38.5104
LeftForeArm  -169.55 -50.6357 -169.135
LeftHand  -0.25398 0.0180481 5.50724
RightShoulder  5.36267 10.1036 33.4653
RightArm  -1.85135 6.41408 48.2506
RightForeArm  176.461 54.1541 166.612
RightHand  -0.639158 2.25259 -9.93219
LeftUpLeg  4.01468 8.21503 7.6913
LeftLeg  5.90429 14.792 -2.70583
LeftFoot  -0.342777 0.463387 -4.782
LeftToes  1.06244e-005 4.65869e-005 -8.65518e-006
6
root  34.6561 40.2842 10.0907 36.0972 87.3788 42.1264
RightUpLeg  -0.219586 -13.4277 -11.7933
RightLeg  11.1641 -3.80199 1.1006
RightFoot  -1.48519 -0.289723 3.30802
RightToes  0.000481921 0.542163 -0.142578
Spine  -0.214444 -0.158205 0.195535
Spine1  17.8125 -0.12373 -0.184527
HEad  19.471 2.43113 -0.491764
LeftShoulder1  8.15799 -14.2865 -39.628
LeftArm  -6.59364 -6.08326 -38.5406
LeftForeArm  -169.493 -50.6454 -169.135
LeftHand  -0.25398 0.0180481 5.50724
RightShoulder  5.37645 10.1034 33.5666
RightArm  -1.80295 6.42546 48.1799
RightForeArm  175.851 54.163 166.561
RightHand  -0.612765 1.78183 -10.1022
LeftUpLeg  4.01019 8.21311 7.6904
LeftLeg  5.91041 14.7683 -2.7016
LeftFoot  -0.335283 0.464142 -4.79377
LeftToes  1.06244e-005 4.65869e-005 -8.65518e-006
7
root  34.6544 40.2842 10.0925 36.4624 87.3878 42.4911
RightUpLeg  -0.215298 -13.424 -11.7985
RightLeg  11.1572 -3.82992 1.09497
RightFoot  -1.4927 -0.290848 3.32548
RightToes  0.000481921 0.542163 -0.142578
Spine  -0.213321 -0.159245 0.16745
Spine1  17.8404 -0.12742 -0.172043
HEad  19.4743 2.47033 -0.534051
LeftShoulder1  8.15119 -14.2681 -39.6367
LeftArm  -6.59504 -6.07059 -38.5563
LeftForeArm  -169.498 -50.6411 -169.136
LeftHand  -0.25398 0.0180481 5.50724
RightShoulder  5.37445 10.0876 33.5975
RightArm  -1.72608 6.50963 48.1592
RightForeArm  175.894 54.1887 166.552
RightHand  -0.660645 2.16616 -10.3614
LeftUpLeg  3.99922 8.21065 7.6851
LeftLeg  5.91742 14.7663 -2.70021
LeftFoot  -0.320945 0.464159 -4.79404
LeftToes  1.06244e-005 4.65869e-005 -8.65518e-006
8
root  34.6547 40.2842 10.0943 36.8057 87.3981 42.8269
RightUpLeg  -0.221163 -13.4533 -11.8058
RightLeg  11.1625 -3.82366 1.09292
RightFoot  -1.49773 -0.291857 3.34114
RightToes  0.000481921 0.542163 -0.142578
Spine  -0.235344 -0.162553 0.112987
Spine1  17.8797 -0.149473 -0.106733
HEad  19.4386 2.45816 -0.581968
LeftShoulder1  8.15484 -14.2448 -39.7134
LeftArm  -6.67833 -6.04288 -38.521
LeftForeArm  -169.391 -50.6194 -169.152
LeftHand  -0.25398 0.0180481 5.50724
RightShoulder  5.36045 10.0772 33.5251
RightArm  -1.68076 6.51118 48.2398
RightForeArm  176.16 54.219 166.558
RightHand  -0.690389 2.4528 -10.4478
LeftUpLeg  3.9807 8.20773 7.67913
LeftLeg  5.92591 14.7631 -2.69953
LeftFoot  -0.310108 0.463462 -4.78317
LeftToes  1.06244e-005 4.65869e-005 -8.65518e-006
